<svg width="196" height="196" viewBox="0 0 196 196" fill="none" xmlns="http://www.w3.org/2000/svg">
<path d="M86.0461 52.337C89.226 60.552 83.5635 70.4013 76.3343 73.1996C69.1051 75.9979 58.5844 72.4129 55.4045 64.1979C52.2246 55.9828 56.346 43.8588 63.5752 41.0605C73.2149 37.3292 82.8663 44.122 86.0461 52.337Z" fill="#D1D5DB"/>
<path d="M90.1228 51.9836C88.4086 60.6242 95.6864 69.3482 103.29 70.8566C110.894 72.365 120.638 67.0177 122.352 58.3771C124.066 49.7365 117.914 38.5059 110.31 36.9975C100.171 34.9861 91.8369 43.343 90.1228 51.9836Z" fill="#D1D5DB"/>
<path d="M164.865 114.979C164.865 144.049 136.663 154.854 98.194 154.854C59.7246 154.854 32.1606 144.049 32.1606 114.979C32.1606 81.1649 59.7246 51.1787 98.194 51.1787C136.663 51.1787 164.865 78.6128 164.865 114.979Z" fill="#F3F4F6"/>
<path d="M146.761 114.644C146.761 135.954 127.003 143.875 100.051 143.875C73.0991 143.875 53.7876 135.954 53.7876 114.644C53.7876 89.8553 73.0991 67.873 100.051 67.873C127.003 67.873 146.761 87.9844 146.761 114.644Z" fill="#F9FAFB"/>
<path d="M97.5077 111.671C97.5077 118.718 93.2105 126.449 87.2053 126.449C81.2002 126.449 71.4995 120.707 71.4995 110.18C71.4995 100.291 81.9791 96.7736 92.8081 98.5795C99.4452 99.6863 97.5077 104.624 97.5077 111.671Z" fill="#D1D5DB"/>
<path d="M92.4853 110.959C92.4853 112.016 92.1832 112.873 90.6731 112.873C89.1629 112.873 88.8608 112.016 88.8608 110.959C88.8608 109.902 89.4649 109.045 90.6731 109.045C91.8812 109.045 92.4853 109.902 92.4853 110.959Z" fill="#F3F4F6"/>
<path d="M115.278 111.671C115.278 118.718 119.261 126.449 124.827 126.449C130.393 126.449 139.385 120.707 139.385 110.18C139.385 100.291 129.671 96.7736 119.634 98.5795C113.483 99.6863 115.278 104.624 115.278 111.671Z" fill="#D1D5DB"/>
<path d="M119.934 110.959C119.934 112.016 120.214 112.873 121.613 112.873C123.013 112.873 123.293 112.016 123.293 110.959C123.293 109.902 122.733 109.045 121.613 109.045C120.493 109.045 119.934 109.902 119.934 110.959Z" fill="#F3F4F6"/>
<path d="M99.7133 121.935C99.367 121.432 98.6779 121.304 98.1742 121.65C97.6705 121.997 97.5429 122.686 97.8892 123.189L99.7133 121.935ZM106.918 120.349L107.965 119.989C107.811 119.542 107.391 119.242 106.918 119.242C106.445 119.242 106.025 119.542 105.871 119.989L106.918 120.349ZM115.947 123.189C116.293 122.686 116.166 121.997 115.662 121.65C115.158 121.304 114.469 121.432 114.123 121.935L115.947 123.189ZM97.8892 123.189C98.222 123.673 98.8311 124.328 99.6493 124.869C100.474 125.415 101.572 125.883 102.86 125.883V123.669C102.118 123.669 101.44 123.399 100.87 123.023C100.293 122.641 99.8878 122.189 99.7133 121.935L97.8892 123.189ZM102.86 125.883C104.419 125.883 105.595 124.772 106.342 123.783C107.127 122.746 107.683 121.527 107.965 120.708L105.871 119.989C105.646 120.646 105.187 121.641 104.577 122.448C103.929 123.304 103.329 123.669 102.86 123.669V125.883ZM105.871 120.708C106.153 121.527 106.709 122.746 107.494 123.783C108.241 124.772 109.417 125.883 110.976 125.883V123.669C110.507 123.669 109.907 123.304 109.259 122.448C108.649 121.641 108.191 120.646 107.965 119.989L105.871 120.708ZM110.976 125.883C112.264 125.883 113.362 125.415 114.187 124.869C115.005 124.328 115.614 123.673 115.947 123.189L114.123 121.935C113.948 122.189 113.543 122.641 112.966 123.023C112.396 123.399 111.718 123.669 110.976 123.669V125.883Z" fill="#D1D5DB"/>
<path d="M113.675 119.211C113.675 120.249 108.934 121.573 107.429 121.967C107.131 122.045 106.821 122.045 106.524 121.967C105.019 121.573 100.277 120.249 100.277 119.211C100.277 117.978 103.981 116.659 106.976 116.659C109.971 116.659 113.675 117.978 113.675 119.211Z" fill="#D1D5DB"/>
<path d="M107.959 85.3513C79.4856 87.1415 72.5407 78.0523 71.499 74.2172L87.4721 65.3099L105.529 61.9697L130.53 74.9595C129.025 78.0523 125.469 84.2504 107.959 85.3513Z" fill="#D1D5DB"/>
<path fill-rule="evenodd" clip-rule="evenodd" d="M101.648 154.946C138.126 154.946 164.868 144.14 164.868 115.071C164.868 78.7046 138.126 51.2705 101.648 51.2705C65.1699 51.2705 39.0327 81.2567 39.0327 115.071C39.0327 144.14 65.1699 154.946 101.648 154.946ZM100.214 143.781C127.047 143.781 146.717 135.868 146.717 114.581C146.717 87.9493 127.047 67.8591 100.214 67.8591C73.3817 67.8591 54.1558 89.8181 54.1558 114.581C54.1558 135.868 73.3817 143.781 100.214 143.781Z" fill="#F3F4F6"/>
<path fill-rule="evenodd" clip-rule="evenodd" d="M24.1065 91.1732C28.1518 86.6436 35.4429 87.395 38.4795 92.6544L42.9266 100.357C45.9631 105.616 42.9683 112.306 37.0229 113.545L35.0892 113.948C34.9785 113.971 34.8678 113.992 34.757 114.01C34.7153 114.125 34.6623 114.237 34.6001 114.344C32.8394 117.371 32.0011 124.344 40.6765 132.414C49.1296 140.277 56.4369 140.849 59.8006 140.01C60.0392 139.95 60.2871 139.933 60.5262 139.963L60.9665 139.09C63.7016 133.668 70.9387 132.507 75.233 136.801L81.5222 143.09C85.8165 147.385 84.6552 154.622 79.2329 157.357L78.8262 157.562C78.7148 157.739 78.5559 157.892 78.3494 158.004C67.6399 163.816 43.5652 161.007 30.3966 142.694C13.9143 119.773 15.5748 100.285 22.0736 93.3315C22.1843 93.2129 22.3105 93.1219 22.4454 93.0572C22.5559 92.9175 22.671 92.7805 22.7908 92.6464L24.1065 91.1732Z" fill="#D1D5DB"/>
<path d="M151.65 49.4422C153.411 45.4401 154.988 44.6475 157.407 44.2845C159.285 43.9808 160.806 43.5402 161.458 42.1028C162.077 40.6507 161.355 39.1836 159.92 38.572C158.515 37.9346 156.799 38.3685 156.028 40.0311L150.747 37.7084C152.953 32.8721 157.528 32.2484 161.896 34.1694C166.712 36.2876 169.16 40.139 167.321 44.3643C166.07 47.1634 163.84 48.2238 161.03 48.5735C158.777 48.8309 157.477 49.4879 156.533 51.5896L156.328 52.0546L151.446 49.9071L151.65 49.4422ZM148.936 54.3523C149.618 52.7103 151.581 51.9881 153.225 52.7112C154.819 53.4124 155.646 55.3617 154.947 56.9964C154.193 58.6663 152.19 59.3906 150.596 58.6894C148.952 57.9663 148.165 56.0149 148.936 54.3523Z" fill="#D1D5DB"/>
<path d="M167.617 61.1131C169.943 58.7133 171.284 58.5647 173.114 58.9477C174.54 59.2292 175.747 59.318 176.597 58.4614C177.426 57.5854 177.299 56.3421 176.433 55.5223C175.596 54.6922 174.25 54.5467 173.256 55.5331L170.089 52.4648C172.956 49.5858 176.4 50.3552 179.019 52.8928C181.907 55.6909 182.637 59.1016 180.197 61.6405C178.556 63.3137 176.676 63.4806 174.57 62.9843C172.886 62.5696 171.78 62.6949 170.545 63.9498L170.275 64.2287L167.347 61.3919L167.617 61.1131ZM164.367 63.9099C165.292 62.9148 166.891 62.919 167.877 63.8742C168.833 64.8005 168.907 66.4173 167.971 67.4028C166.987 68.3988 165.359 68.3853 164.403 67.459C163.417 66.5038 163.372 64.8964 164.367 63.9099Z" fill="#D1D5DB"/>
</svg>
